<svg width="258" height="65" viewBox="0 0 258 65" fill="none" xmlns="http://www.w3.org/2000/svg">
<path d="M56.0652 24.4837L56.0259 24.4447C56.0228 24.4425 56.0202 24.4396 56.0187 24.4362L31.5011 0L6.98369 24.4355C6.98088 24.4384 6.97929 24.4422 6.97644 24.444L6.93599 24.4831C3.18695 28.2406 0.805654 33.1392 0.170672 38.4005C-0.464311 43.6617 0.683456 48.9835 3.4315 53.52C6.17956 58.0564 10.3702 61.5473 15.3372 63.4372C20.3043 65.3272 25.7627 65.5083 30.8447 63.9512C31.2724 63.8209 31.7295 63.8209 32.1572 63.9512C37.2388 65.5077 42.6969 65.3266 47.6636 63.4363C52.6304 61.546 56.8205 58.0555 59.5684 53.5193C62.3163 48.9832 63.4642 43.6617 62.8295 38.4008C62.1947 33.1399 59.8138 28.2412 56.0652 24.4837ZM15.7018 40.5974C15.5824 40.7163 15.4877 40.8577 15.4232 41.0129C15.3586 41.1682 15.3254 41.3347 15.3254 41.5029C15.369 45.8157 16.592 50.0348 18.8626 53.7064C18.9141 53.7897 18.938 53.8872 18.9307 53.9847C18.9233 54.0822 18.8853 54.175 18.8218 54.2497C18.7584 54.3245 18.6729 54.3772 18.5776 54.4006C18.4822 54.4239 18.3819 54.4167 18.291 54.3797C16.584 53.6642 15.0333 52.6239 13.7256 51.3173C11.0456 48.6459 9.53902 45.0234 9.53658 41.2458C9.53415 37.4681 11.0361 33.8438 13.7126 31.1691L31.5011 13.4418L49.2886 31.1691C51.9656 33.8435 53.468 37.4678 53.4655 41.2458C53.4633 45.0234 51.9564 48.6459 49.2763 51.3173C47.9685 52.6239 46.4179 53.6642 44.7112 54.3797C44.6201 54.4167 44.5197 54.4239 44.4244 54.4006C44.3291 54.3772 44.2437 54.3242 44.18 54.2497C44.1167 54.175 44.0784 54.0822 44.0711 53.9844C44.0639 53.8869 44.0876 53.7894 44.1392 53.7061C46.4103 50.0348 47.6339 45.8157 47.6782 41.5029C47.6782 41.3347 47.6446 41.1682 47.5797 41.0126C47.5148 40.8571 47.4199 40.716 47.3002 40.5971L38.8866 31.7027C38.8027 31.633 38.6973 31.5948 38.5881 31.5948C38.4792 31.5948 38.3734 31.633 38.2898 31.7027C38.2059 31.7721 38.1496 31.869 38.13 31.9759C38.1103 32.0829 38.129 32.193 38.1828 32.2877C41.4505 38.1812 38.6406 46.6465 33.9547 51.3173L33.93 51.342C33.2832 51.9796 32.4101 52.3371 31.5004 52.3368C30.5906 52.3365 29.7177 51.9784 29.0714 51.3404L29.0487 51.3173C24.361 46.6465 21.5526 38.1821 24.8208 32.2889C24.8745 32.1943 24.8933 32.0841 24.8737 31.9772C24.8542 31.8702 24.7976 31.7734 24.7138 31.704C24.6301 31.6342 24.5245 31.596 24.4155 31.596C24.3064 31.596 24.2008 31.6342 24.1171 31.704L15.7018 40.5974Z" fill="white"/>
<path d="M83.25 45H75.1705V18.8182H83.608C86.1477 18.8182 88.321 19.3423 90.1278 20.3906C91.9347 21.4304 93.3196 22.9261 94.2827 24.8778C95.2457 26.821 95.7273 29.1477 95.7273 31.858C95.7273 34.5852 95.2415 36.9332 94.2699 38.902C93.2983 40.8622 91.8835 42.3707 90.0256 43.4276C88.1676 44.4759 85.9091 45 83.25 45ZM78.3409 42.1875H83.0455C85.2102 42.1875 87.0043 41.7699 88.4276 40.9347C89.8509 40.0994 90.9119 38.9105 91.6108 37.3679C92.3097 35.8253 92.6591 33.9886 92.6591 31.858C92.6591 29.7443 92.3139 27.9247 91.6236 26.3991C90.9332 24.8651 89.902 23.6889 88.5298 22.8707C87.1577 22.044 85.4489 21.6307 83.4034 21.6307H78.3409V42.1875ZM108.869 45.4091C106.977 45.4091 105.345 44.9915 103.973 44.1562C102.609 43.3125 101.557 42.1364 100.815 40.6278C100.082 39.1108 99.7159 37.3466 99.7159 35.3352C99.7159 33.3239 100.082 31.5511 100.815 30.017C101.557 28.4744 102.588 27.2727 103.909 26.4119C105.239 25.5426 106.79 25.108 108.562 25.108C109.585 25.108 110.595 25.2784 111.592 25.6193C112.589 25.9602 113.497 26.5142 114.315 27.2812C115.134 28.0398 115.786 29.0455 116.271 30.2983C116.757 31.5511 117 33.0937 117 34.9261V36.2045H101.864V33.5966H113.932C113.932 32.4886 113.71 31.5 113.267 30.6307C112.832 29.7614 112.21 29.0753 111.401 28.5724C110.599 28.0696 109.653 27.8182 108.562 27.8182C107.361 27.8182 106.321 28.1165 105.443 28.7131C104.574 29.3011 103.905 30.0682 103.436 31.0142C102.967 31.9602 102.733 32.9744 102.733 34.0568V35.7955C102.733 37.2784 102.989 38.5355 103.5 39.5668C104.02 40.5895 104.74 41.3693 105.661 41.9062C106.581 42.4347 107.651 42.6989 108.869 42.6989C109.662 42.6989 110.378 42.5881 111.017 42.3665C111.665 42.1364 112.223 41.7955 112.692 41.3438C113.161 40.8835 113.523 40.3125 113.778 39.6307L116.693 40.4489C116.386 41.4375 115.871 42.3068 115.146 43.0568C114.422 43.7983 113.527 44.3778 112.462 44.7955C111.396 45.2045 110.199 45.4091 108.869 45.4091ZM135.499 29.7614L132.788 30.5284C132.618 30.0767 132.366 29.6378 132.034 29.2116C131.71 28.777 131.267 28.419 130.705 28.1378C130.142 27.8565 129.422 27.7159 128.544 27.7159C127.342 27.7159 126.341 27.9929 125.54 28.5469C124.747 29.0923 124.351 29.7869 124.351 30.6307C124.351 31.3807 124.624 31.973 125.169 32.4077C125.714 32.8423 126.567 33.2045 127.726 33.4943L130.641 34.2102C132.396 34.6364 133.705 35.2884 134.565 36.1662C135.426 37.0355 135.857 38.1562 135.857 39.5284C135.857 40.6534 135.533 41.6591 134.885 42.5455C134.246 43.4318 133.351 44.1307 132.2 44.642C131.05 45.1534 129.712 45.4091 128.186 45.4091C126.183 45.4091 124.526 44.9744 123.213 44.1051C121.901 43.2358 121.07 41.9659 120.72 40.2955L123.584 39.5795C123.857 40.6364 124.372 41.429 125.131 41.9574C125.898 42.4858 126.899 42.75 128.135 42.75C129.541 42.75 130.658 42.4517 131.484 41.8551C132.32 41.25 132.737 40.5256 132.737 39.6818C132.737 39 132.499 38.429 132.021 37.9688C131.544 37.5 130.811 37.1506 129.822 36.9205L126.55 36.1534C124.751 35.7273 123.43 35.0668 122.587 34.1719C121.751 33.2685 121.334 32.1392 121.334 30.7841C121.334 29.6761 121.645 28.696 122.267 27.8438C122.898 26.9915 123.754 26.3224 124.837 25.8366C125.928 25.3509 127.163 25.108 128.544 25.108C130.487 25.108 132.013 25.5341 133.121 26.3864C134.237 27.2386 135.03 28.3636 135.499 29.7614ZM146.176 45.4602C144.932 45.4602 143.803 45.2259 142.789 44.7571C141.775 44.2798 140.969 43.5938 140.373 42.6989C139.776 41.7955 139.478 40.7045 139.478 39.4261C139.478 38.3011 139.699 37.3892 140.142 36.6903C140.586 35.983 141.178 35.429 141.919 35.0284C142.661 34.6278 143.479 34.3295 144.374 34.1335C145.277 33.929 146.185 33.767 147.097 33.6477C148.29 33.4943 149.257 33.3793 149.999 33.3026C150.749 33.2173 151.294 33.0767 151.635 32.8807C151.985 32.6847 152.159 32.3437 152.159 31.858V31.7557C152.159 30.4943 151.814 29.5142 151.124 28.8153C150.442 28.1165 149.407 27.767 148.017 27.767C146.577 27.767 145.448 28.0824 144.63 28.7131C143.811 29.3437 143.236 30.017 142.904 30.733L140.04 29.7102C140.551 28.517 141.233 27.5881 142.086 26.9233C142.946 26.25 143.884 25.7812 144.898 25.517C145.921 25.2443 146.926 25.108 147.915 25.108C148.546 25.108 149.27 25.1847 150.088 25.3381C150.915 25.483 151.712 25.7855 152.479 26.2457C153.255 26.706 153.898 27.4006 154.409 28.3295C154.921 29.2585 155.176 30.5028 155.176 32.0625V45H152.159V42.3409H152.006C151.801 42.767 151.461 43.223 150.983 43.7088C150.506 44.1946 149.871 44.608 149.078 44.9489C148.286 45.2898 147.319 45.4602 146.176 45.4602ZM146.637 42.75C147.83 42.75 148.836 42.5156 149.654 42.0469C150.48 41.5781 151.103 40.973 151.52 40.2315C151.946 39.4901 152.159 38.7102 152.159 37.892V35.1307C152.032 35.2841 151.75 35.4247 151.316 35.5526C150.89 35.6719 150.395 35.7784 149.833 35.8722C149.279 35.9574 148.738 36.0341 148.209 36.1023C147.689 36.1619 147.267 36.2131 146.944 36.2557C146.159 36.358 145.426 36.5241 144.745 36.7543C144.071 36.9759 143.526 37.3125 143.108 37.7642C142.699 38.2074 142.495 38.8125 142.495 39.5795C142.495 40.6278 142.882 41.4205 143.658 41.9574C144.442 42.4858 145.435 42.75 146.637 42.75ZM185.536 25.3636C185.382 24.0682 184.76 23.0625 183.669 22.3466C182.578 21.6307 181.24 21.2727 179.655 21.2727C178.496 21.2727 177.482 21.4602 176.612 21.8352C175.751 22.2102 175.078 22.7259 174.592 23.3821C174.115 24.0384 173.876 24.7841 173.876 25.6193C173.876 26.3182 174.043 26.919 174.375 27.4219C174.716 27.9162 175.151 28.3295 175.679 28.6619C176.207 28.9858 176.761 29.2543 177.341 29.4673C177.92 29.6719 178.453 29.8381 178.939 29.9659L181.598 30.6818C182.28 30.8608 183.038 31.108 183.874 31.4233C184.717 31.7386 185.523 32.169 186.29 32.7145C187.065 33.2514 187.705 33.9418 188.207 34.7855C188.71 35.6293 188.962 36.6648 188.962 37.892C188.962 39.3068 188.591 40.5852 187.849 41.7273C187.116 42.8693 186.043 43.777 184.628 44.4503C183.222 45.1236 181.513 45.4602 179.501 45.4602C177.626 45.4602 176.003 45.1577 174.631 44.5526C173.267 43.9474 172.193 43.1037 171.409 42.0213C170.634 40.9389 170.195 39.6818 170.092 38.25H173.365C173.45 39.2386 173.783 40.0568 174.362 40.7045C174.95 41.3437 175.692 41.821 176.587 42.1364C177.49 42.4432 178.462 42.5966 179.501 42.5966C180.712 42.5966 181.798 42.4006 182.761 42.0085C183.724 41.608 184.487 41.054 185.05 40.3466C185.612 39.6307 185.893 38.7955 185.893 37.8409C185.893 36.9716 185.651 36.2642 185.165 35.7188C184.679 35.1733 184.04 34.7301 183.247 34.3892C182.455 34.0483 181.598 33.75 180.678 33.4943L177.456 32.5739C175.411 31.9858 173.791 31.1463 172.598 30.0554C171.405 28.9645 170.808 27.5369 170.808 25.7727C170.808 24.3068 171.205 23.0284 171.997 21.9375C172.798 20.8381 173.872 19.9858 175.219 19.3807C176.574 18.767 178.087 18.4602 179.757 18.4602C181.445 18.4602 182.945 18.7628 184.257 19.3679C185.57 19.9645 186.609 20.7827 187.376 21.8224C188.152 22.8622 188.561 24.0426 188.604 25.3636H185.536ZM196.782 33.1875V45H193.765V18.8182H196.782V28.4318H197.038C197.498 27.4176 198.189 26.6122 199.109 26.0156C200.038 25.4105 201.274 25.108 202.816 25.108C204.154 25.108 205.326 25.3764 206.332 25.9134C207.338 26.4418 208.118 27.2557 208.672 28.3551C209.234 29.446 209.515 30.8352 209.515 32.5227V45H206.498V32.7273C206.498 31.1676 206.093 29.9616 205.284 29.1094C204.483 28.2486 203.37 27.8182 201.947 27.8182C200.958 27.8182 200.072 28.027 199.288 28.4446C198.512 28.8622 197.899 29.4716 197.447 30.2727C197.004 31.0739 196.782 32.0455 196.782 33.1875ZM223.012 45.4091C221.239 45.4091 219.684 44.9872 218.346 44.1435C217.016 43.2997 215.977 42.1193 215.227 40.6023C214.485 39.0852 214.114 37.3125 214.114 35.2841C214.114 33.2386 214.485 31.4531 215.227 29.9276C215.977 28.402 217.016 27.2173 218.346 26.3736C219.684 25.5298 221.239 25.108 223.012 25.108C224.785 25.108 226.336 25.5298 227.665 26.3736C229.004 27.2173 230.043 28.402 230.785 29.9276C231.535 31.4531 231.91 33.2386 231.91 35.2841C231.91 37.3125 231.535 39.0852 230.785 40.6023C230.043 42.1193 229.004 43.2997 227.665 44.1435C226.336 44.9872 224.785 45.4091 223.012 45.4091ZM223.012 42.6989C224.359 42.6989 225.467 42.3537 226.336 41.6634C227.205 40.973 227.849 40.0653 228.266 38.9403C228.684 37.8153 228.893 36.5966 228.893 35.2841C228.893 33.9716 228.684 32.7486 228.266 31.6151C227.849 30.4815 227.205 29.5653 226.336 28.8665C225.467 28.1676 224.359 27.8182 223.012 27.8182C221.665 27.8182 220.558 28.1676 219.688 28.8665C218.819 29.5653 218.175 30.4815 217.758 31.6151C217.34 32.7486 217.131 33.9716 217.131 35.2841C217.131 36.5966 217.34 37.8153 217.758 38.9403C218.175 40.0653 218.819 40.973 219.688 41.6634C220.558 42.3537 221.665 42.6989 223.012 42.6989ZM236.515 52.3636V25.3636H239.43V28.483H239.788C240.01 28.142 240.316 27.7074 240.708 27.179C241.109 26.642 241.68 26.1648 242.422 25.7472C243.172 25.321 244.186 25.108 245.464 25.108C247.118 25.108 248.575 25.5213 249.836 26.348C251.098 27.1747 252.082 28.3466 252.789 29.8636C253.497 31.3807 253.85 33.1705 253.85 35.233C253.85 37.3125 253.497 39.1151 252.789 40.6406C252.082 42.1577 251.102 43.3338 249.849 44.169C248.596 44.9957 247.152 45.4091 245.515 45.4091C244.254 45.4091 243.244 45.2003 242.485 44.7827C241.727 44.3565 241.143 43.875 240.734 43.3381C240.325 42.7926 240.01 42.3409 239.788 41.983H239.532V52.3636H236.515ZM239.481 35.1818C239.481 36.6648 239.699 37.973 240.133 39.1065C240.568 40.2315 241.203 41.1136 242.038 41.7528C242.873 42.3835 243.896 42.6989 245.106 42.6989C246.368 42.6989 247.42 42.3665 248.264 41.7017C249.116 41.0284 249.755 40.125 250.181 38.9915C250.616 37.8494 250.833 36.5795 250.833 35.1818C250.833 33.8011 250.62 32.5568 250.194 31.4489C249.777 30.3324 249.142 29.4503 248.289 28.8026C247.446 28.1463 246.385 27.8182 245.106 27.8182C243.879 27.8182 242.848 28.1293 242.012 28.7514C241.177 29.3651 240.547 30.2259 240.12 31.3338C239.694 32.4332 239.481 33.7159 239.481 35.1818Z" fill="white"/>
</svg>
