<svg width="28" height="24" viewBox="0 0 28 24" fill="none" xmlns="http://www.w3.org/2000/svg">
<path d="M23.8976 15H10.0176L10.3275 16.5H23.0367C23.7659 16.5 24.3064 17.1704 24.1448 17.8743L23.8836 19.0123C24.7686 19.4376 25.3788 20.3357 25.3788 21.375C25.3788 22.8376 24.1705 24.0208 22.6883 23.9997C21.2762 23.9796 20.1149 22.8451 20.0768 21.4475C20.0559 20.6841 20.3649 19.9921 20.8724 19.4999H10.9458C11.4372 19.9765 11.7424 20.6403 11.7424 21.375C11.7424 22.8662 10.4864 24.0671 8.96449 23.9971C7.61316 23.935 6.51416 22.854 6.44314 21.5166C6.38831 20.4838 6.93726 19.5734 7.77131 19.0985L4.44522 3H1.13636C0.50876 3 0 2.49633 0 1.875V1.125C0 0.503672 0.50876 0 1.13636 0H5.99096C6.53078 0 6.99607 0.375984 7.10426 0.899531L7.53826 3H26.1359C26.8651 3 27.4056 3.67036 27.244 4.37433L25.0057 14.1243C24.8881 14.6365 24.4282 15 23.8976 15Z" fill="white"/>
</svg>
