<svg width="17" height="24" viewBox="0 0 17 24" fill="none" xmlns="http://www.w3.org/2000/svg">
<path d="M15.75 9H15C14.5856 9 14.25 9.33562 14.25 9.75V12C14.25 15.5063 11.227 18.3197 7.65047 17.9709C4.53328 17.6667 2.25 14.8645 2.25 11.7328V9.75C2.25 9.33562 1.91438 9 1.5 9H0.75C0.335625 9 0 9.33562 0 9.75V11.6325C0 15.8344 2.99859 19.5802 7.125 20.1492V21.75H4.5C4.08563 21.75 3.75 22.0856 3.75 22.5V23.25C3.75 23.6644 4.08563 24 4.5 24H12C12.4144 24 12.75 23.6644 12.75 23.25V22.5C12.75 22.0856 12.4144 21.75 12 21.75H9.375V20.167C13.3927 19.6158 16.5 16.1672 16.5 12V9.75C16.5 9.33562 16.1644 9 15.75 9ZM8.25 16.5C10.7353 16.5 12.75 14.4853 12.75 12H8.75016C8.47406 12 8.25 11.8322 8.25 11.625V10.875C8.25 10.6678 8.47406 10.5 8.75016 10.5H12.75V9H8.75016C8.47406 9 8.25 8.83219 8.25 8.625V7.875C8.25 7.66781 8.47406 7.5 8.75016 7.5H12.75V6H8.75016C8.47406 6 8.25 5.83219 8.25 5.625V4.875C8.25 4.66781 8.47406 4.5 8.75016 4.5H12.75C12.75 2.01469 10.7353 0 8.25 0C5.76469 0 3.75 2.01469 3.75 4.5V12C3.75 14.4853 5.76469 16.5 8.25 16.5Z" fill="#F83A53"/>
</svg>
